<?xml version="1.0" encoding="UTF-8" standalone="no"?>
<svg
   height="24px"
   viewBox="0 -960 960 960"
   width="24px"
   fill="#e3e3e3"
   version="1.1"
   id="svg1"
   sodipodi:docname="github_icon.svg"
   xml:space="preserve"
   inkscape:version="1.4 (e7c3feb100, 2024-10-09)"
   xmlns:inkscape="http://www.inkscape.org/namespaces/inkscape"
   xmlns:sodipodi="http://sodipodi.sourceforge.net/DTD/sodipodi-0.dtd"
   xmlns="http://www.w3.org/2000/svg"
   xmlns:svg="http://www.w3.org/2000/svg"><defs
     id="defs1" /><sodipodi:namedview
     id="namedview1"
     pagecolor="#ffffff"
     bordercolor="#000000"
     borderopacity="0.25"
     inkscape:showpageshadow="2"
     inkscape:pageopacity="0.0"
     inkscape:pagecheckerboard="0"
     inkscape:deskcolor="#d1d1d1"
     inkscape:zoom="8.6770833"
     inkscape:cx="23.740696"
     inkscape:cy="-2.5930372"
     inkscape:window-width="1920"
     inkscape:window-height="1050"
     inkscape:window-x="0"
     inkscape:window-y="30"
     inkscape:window-maximized="1"
     inkscape:current-layer="svg1" /><path
     fill-rule="evenodd"
     clip-rule="evenodd"
     d="m 484.98214,-957.14344 c -261.98697,0 -473.777803,214.98827 -473.777803,480.95818 0,212.60411 135.701683,392.568789 323.956063,456.264034 23.53665,4.788368 32.158,-10.348695 32.158,-23.081949 0,-11.150031 -0.77593,-49.369042 -0.77593,-89.190925 -131.79345,28.67165 -159.23833,-57.33338 -159.23833,-57.33338 -21.18009,-55.74063 -52.56216,-70.06664 -52.56216,-70.06664 -43.13611,-29.46326 3.14195,-29.46326 3.14195,-29.46326 47.84924,3.1857 72.95686,49.36924 72.95686,49.36924 42.35032,73.25233 110.59406,52.55474 138.04859,39.81196 3.91788,-31.05621 16.47662,-52.55494 29.81109,-64.49658 -105.11466,-11.15003 -215.70872,-52.55494 -215.70872,-237.29825 0,-52.55494 18.81368,-95.5526 48.62477,-128.99297 -4.70327,-11.94164 -21.17988,-61.32061 4.71332,-127.40994 0,0 40.00342,-12.74298 130.20298,49.36905 a 455.50704,459.00015 0 0 1 118.44932,-15.92868 c 40.00342,0 80.78297,5.57998 118.43948,15.92868 90.2092,-62.11203 130.21282,-49.36905 130.21282,-49.36905 25.89321,66.08933 9.40694,115.4683 4.70347,127.40994 30.59668,33.44037 48.63462,76.43803 48.63462,128.99297 0,184.74331 -110.59406,225.34688 -216.4943,237.29825 17.262,15.12734 32.158,43.78927 32.158,89.18101 0,64.49657 -0.77594,116.259902 -0.77594,132.17885 0,12.742979 8.63121,27.880042 32.158,23.101399 188.25438,-63.714695 323.95606,-243.669649 323.95606,-456.273759 0.77574,-265.96991 -211.79082,-480.95818 -472.99221,-480.95818 z"
     fill="#ffffff"
     id="path1-5"
     style="display:inline;stroke-width:9.73494" /></svg>
