<?xml version="1.0" encoding="UTF-8" standalone="no"?>
<svg
   viewBox="0 0 25.714286 25.714286"
   width="24"
   height="24"
   version="1.1"
   id="svg1"
   sodipodi:docname="twitter_icon.svg"
   inkscape:version="1.4 (e7c3feb100, 2024-10-09)"
   xmlns:inkscape="http://www.inkscape.org/namespaces/inkscape"
   xmlns:sodipodi="http://sodipodi.sourceforge.net/DTD/sodipodi-0.dtd"
   xmlns="http://www.w3.org/2000/svg"
   xmlns:svg="http://www.w3.org/2000/svg">
  <defs
     id="defs1" />
  <sodipodi:namedview
     id="namedview1"
     pagecolor="#ffffff"
     bordercolor="#000000"
     borderopacity="0.25"
     inkscape:showpageshadow="2"
     inkscape:pageopacity="0.0"
     inkscape:pagecheckerboard="0"
     inkscape:deskcolor="#d1d1d1"
     inkscape:zoom="10.644482"
     inkscape:cx="35.276492"
     inkscape:cy="16.487415"
     inkscape:window-width="1920"
     inkscape:window-height="1054"
     inkscape:window-x="0"
     inkscape:window-y="26"
     inkscape:window-maximized="1"
     inkscape:current-layer="svg1" />
  <path
     d="M 25.714286,3.1387933 C 24.771024,3.6538558 23.757781,4.0004625 22.694271,4.1567992 23.780451,3.3569374 24.613321,2.0904896 25.005608,0.58044745 23.990394,1.3209256 22.864787,1.8590144 21.666244,2.1498733 20.707211,0.89312069 19.341108,0.10780186 17.829129,0.10780186 c -2.903709,0 -5.257428,2.89525724 -5.257428,6.46433744 0,0.5065792 0.04731,1.0010392 0.136018,1.4724728 C 8.3383572,7.7755677 4.4647738,5.2014671 1.8705572,1.2894159 1.4191319,2.2444024 1.1599074,3.3545136 1.1599074,4.5409752 c 0,2.2420368 0.9274916,4.2210887 2.3379491,5.3796764 C 2.6364031,9.8867181 1.8252175,9.5958592 1.116539,9.1123064 c 0,0.027874 0,0.053324 0,0.081198 0,3.1327926 1.8116149,5.7456736 4.2175734,6.3382986 -0.4405831,0.147853 -0.9058074,0.226628 -1.3858163,0.226628 -0.3380762,0 -0.6682671,-0.0412 -0.9886016,-0.115132 0.6692527,2.568041 2.6109726,4.438021 4.9114672,4.490133 -1.7988015,1.734246 -4.0657841,2.768007 -6.5298957,2.768007 -0.42382722,0 -0.84272619,-0.0303 -1.25472564,-0.09089 2.32710704,1.833623 5.08986894,2.903741 8.05961614,2.903741 9.6711445,0 14.9581425,-9.850419 14.9581425,-18.3931853 0,-0.2799516 -0.0049,-0.5586913 -0.01478,-0.8362191 1.028028,-0.9125696 1.920036,-2.0505547 2.624772,-3.3460884 z"
     id="path1"
     style="fill:#ffffff;fill-opacity:1;stroke-width:1.09294" />
</svg>
